<?xml version="1.0" encoding="utf-8"?>
<!-- Generator: Adobe Illustrator 20.0.0, SVG Export Plug-In . SVG Version: 6.00 Build 0)  -->
<svg version="1.1" id="Layer_1" xmlns="http://www.w3.org/2000/svg" xmlns:xlink="http://www.w3.org/1999/xlink" x="0px" y="0px"
	 viewBox="0 0 157.7 80.6" style="enable-background:new 0 0 157.7 80.6;" xml:space="preserve">
<style type="text/css">
	.st0{fill:none;stroke:#000000;stroke-width:2;stroke-linecap:round;stroke-linejoin:round;stroke-miterlimit:10;}
</style>
<g>
	<g>
		<path class="st0" d="M138.6,2.2c-0.4,0.2-0.9,0.1-1.3,0.1c-27.2,0-54.4,0-81.6,0.1c-2.3,0-4.5,0.5-6.8,0.4c-2.7-0.1-5.4-0.2-8-0.1
			c-5.5,0.1-11,0.2-16.4,0.4c-5.2,0.2-10.5,0.5-15.7,1C7.5,4.2,6.3,4.2,5.2,4.6c-2,0.7-3,1.9-3,4c0,6.1,0.1,12.2,0.3,18.2
			c0,1.1,0.1,2.2,0.1,3.2c0,4.2,0.1,8.5,0.1,12.7c0.1,4.4,0.2,8.7,0.4,13.1C3.2,60.9,3.4,66,3.8,71.2C3.9,72.8,4,74.4,4.3,76
			c0.2,0.9,0.6,1.6,1,2.4c0.5,0.8,1.1,1.5,2.3,1.4c0.4-0.1,1,0.1,1.4,0.1c29.8,0,59.6,0.1,89.4,0c10.4,0,20.7,0,31.1-0.1
			c4.1,0,8.2-0.4,12.3-1.1c2.5-0.4,5.1-0.8,7.7-1.1c1.3-0.1,2.6-0.1,4-0.3c2.2-0.3,3.1-1.2,3.4-3.4c0.1-0.4,0.1-0.9,0.1-1.3
			c0-11.8,0-23.5,0-35.3c0-5.3-0.1-10.7-0.6-16c-0.3-2.6-0.7-5.3-1.1-7.9c-0.5-2.8-0.7-5.6-1-8.4c-0.1-1.3-0.8-2.1-2-2.4
			c-0.8-0.2-1.7-0.4-2.5-0.4c-3.6,0-7.2,0-10.8,0"/>
	</g>
</g>
</svg>
